<svg width="393" height="598" viewBox="0 0 393 598" fill="none" xmlns="http://www.w3.org/2000/svg">
    <path fill-rule="evenodd" clip-rule="evenodd" d="M0 53.5775C0.516601 53.0038 1.04247 52.4496 1.57719 51.9157C2.1834 51.642 3.09299 51.2619 4.35985 50.8102C7.0531 49.8497 10.6674 48.8109 15.0845 47.8779C23.9303 46.0094 35.205 44.7314 47.5169 45.0524C63.2254 45.462 79.6667 48.4228 94.7967 55.3086L0 126.164L0 238.782C2.88897 242.045 5.87526 245.254 8.95186 248.358L41.9756 215.15C30.0517 203.119 19.922 189.392 10.9408 176.516L133.348 85.0237C139.64 91.3628 146.562 98.6865 152.023 105.304L187.909 75.2597C175.53 60.2583 158.118 43.5111 151.063 36.9912C126.719 14.4911 97.7642 3.97269 71.0908 0H16.0362C12.3498 0.540885 8.83038 1.1736 5.50719 1.87556C3.66692 2.26428 1.826 2.68685 0 3.14384V53.5775ZM393 30.303C353.674 25.7196 306.207 30.1359 253.471 48.7401C241.797 52.8586 228.318 61.4652 214.885 71.3315C200.93 81.5808 185.107 94.645 168.38 109.319C134.898 138.692 96.7459 175.442 60.9132 211.204C39.3546 232.72 18.552 253.962 0 273.15L0 340.811C0.046449 340.762 0.0929298 340.713 0.139442 340.665C24.7671 314.765 58.2552 280.024 93.7568 244.593C129.308 209.112 166.648 173.17 199.028 144.763C215.232 130.547 229.934 118.45 242.377 109.311C248.335 104.935 253.413 101.512 257.623 98.9273L393 217.287V155.048L309.076 81.673C341.461 74.7314 369.757 74.3114 393 77.7001V30.303ZM393 217.983C391.49 220.258 389.734 222.757 387.708 225.484C380.463 235.235 370.758 246.591 358.983 259.227C335.446 284.484 304.736 313.691 271.529 343.666C216.787 393.079 156.33 443.624 111.867 480.798C108.451 483.655 105.128 486.433 101.911 489.125L0 390.334V455.568L65.9673 519.516C57.2805 526.499 49.9648 531.676 43.5434 535.351C33.1781 541.283 26.8664 542.298 22.1796 541.86C17.212 541.395 10.501 538.967 0 531.219L0 584.578C5.71728 586.658 11.6537 588.08 17.8662 588.661C35.1721 590.28 51.1334 585.067 66.5956 576.218C81.6471 567.604 97.756 554.652 115.971 538.486C123.567 532.102 132.107 524.962 141.384 517.207L141.434 517.165C185.87 480.015 247.192 428.748 302.671 378.67C336.269 348.343 368.118 318.102 393 291.402V217.983ZM393 322.051C391.259 320.359 389.703 318.862 388.344 317.555L388.313 317.526C387.974 317.2 387.648 316.886 387.334 316.583L355.092 350.562C355.42 350.878 355.761 351.206 356.116 351.547L356.117 351.548C363.389 358.541 376.248 370.907 393 390.014V322.051ZM393 399.386L275.222 494.293C259.662 478.504 244.149 462.023 236.168 452.351L200.281 482.395C212.356 497.028 237.132 522.733 256.739 542.043C271.315 558.25 283.671 571.831 294.796 581.091C306.411 590.76 319.962 598.557 336.9 597.969C352.507 597.426 366.516 589.764 379.338 581.2C383.568 578.375 388.116 575.128 393 571.517V512.537C391.391 513.778 389.825 514.986 388.299 516.163L388.299 516.163C373.592 527.51 362.685 535.924 353.549 542.027C341.817 549.863 337.103 550.931 335.291 550.994L335.253 550.995C334.683 551.02 332.059 551.133 324.522 544.859C319.797 540.926 314.402 535.574 307.64 528.363L393 459.579V399.386Z" fill="#6BABDA"/>
</svg>
