<svg width="98" height="22" viewBox="0 0 98 22" fill="none" xmlns="http://www.w3.org/2000/svg">
    <path fill-rule="evenodd" clip-rule="evenodd" d="M41.7724 4.36148C41.8494 3.40502 42.2248 2.45745 42.945 1.81934L42.9931 1.77664L43.0469 1.74097C43.3243 1.55696 43.7197 1.43241 44.0944 1.35384C44.5004 1.2687 44.9923 1.21491 45.5227 1.22864C46.5766 1.25592 47.8664 1.55438 48.902 2.50462C49.1298 2.71361 49.6937 3.25182 50.0961 3.73602L48.694 4.86206C48.546 4.68391 48.3634 4.4889 48.1882 4.31075L44.4785 7.06356C44.7491 7.44489 45.05 7.84098 45.4001 8.19161L44.1031 9.433C43.516 8.8449 43.0296 8.13964 42.6954 7.65515C42.6283 7.55785 42.5673 7.46946 42.5129 7.3927L42.4932 7.36496L42.4759 7.33576C41.9123 6.38875 41.6944 5.33024 41.7724 4.36148ZM43.6496 5.49726L46.7145 3.22294C46.3002 3.06593 45.8607 2.9956 45.4366 2.98462C45.0544 2.97472 44.7054 3.0142 44.4341 3.07111C44.2386 3.1121 44.12 3.15425 44.0655 3.17561C43.8139 3.43757 43.6085 3.87999 43.5617 4.46188C43.5352 4.79084 43.5621 5.1435 43.6496 5.49726ZM52.0641 18.8008C52.5299 19.3149 52.932 19.7539 53.2964 20.0551C53.6764 20.3692 54.1446 20.6445 54.7458 20.6238C55.2989 20.6047 55.7848 20.3353 56.201 20.0593C56.5469 19.8299 56.9577 19.5151 57.436 19.1486C57.5495 19.0616 57.6668 18.9717 57.7879 18.8794C58.2878 18.4982 58.7338 18.1471 59.0664 17.8064C59.403 17.4617 59.7084 17.0441 59.7996 16.5139C59.8918 15.9778 59.7382 15.4862 59.5051 15.042C59.2756 14.6049 58.923 14.128 58.4907 13.5917C57.5764 12.4573 56.865 11.7781 56.5284 11.4567C56.5172 11.446 56.5064 11.4357 56.496 11.4257L55.2279 12.6953C55.2384 12.7054 55.2494 12.7159 55.2608 12.7268C55.5046 12.9595 55.9435 13.3785 56.5163 14.0345L52.8038 17.0045C52.3367 16.5312 51.885 16.0525 51.6469 15.766L50.2448 16.8921C50.636 17.3628 51.434 18.1846 52.0641 18.8008ZM57.6112 15.4033L54.0229 18.274C54.1993 18.4577 54.3438 18.5972 54.4715 18.7028C54.6228 18.8278 54.6988 18.8606 54.7242 18.868C54.7342 18.8666 54.767 18.8604 54.8315 18.8326C54.9196 18.7947 55.0419 18.7275 55.2164 18.6118C55.5045 18.4207 55.8488 18.157 56.3206 17.7957C56.4398 17.7043 56.5673 17.6067 56.704 17.5024C57.2156 17.1124 57.5565 16.8378 57.7816 16.6072C58.0028 16.3807 58.0259 16.2817 58.0298 16.2588C58.0327 16.2418 58.0479 16.1438 57.9048 15.8711C57.8348 15.7377 57.7386 15.5843 57.6112 15.4033ZM54.7213 18.8683C54.7213 18.8683 54.7213 18.8683 54.7212 18.8683C54.721 18.8683 54.7209 18.8683 54.7209 18.8683M54.7253 18.8683C54.731 18.8684 54.7342 18.8693 54.7343 18.8697C54.7345 18.8701 54.7316 18.87 54.7253 18.8683Z" fill="white"/>
    <path fill-rule="evenodd" clip-rule="evenodd" d="M54.172 4.10255L56.9562 6.5192C57.045 5.57033 56.9276 4.68426 56.7785 4.07452C56.0722 3.94022 55.1927 3.91851 54.172 4.10255ZM56.3884 8.38848L52.1916 4.74568C52.0799 4.81704 51.9496 4.90597 51.8003 5.01489C51.4053 5.30288 50.9365 5.68572 50.4175 6.13776C49.3805 7.04089 48.1833 8.18492 47.0418 9.31594C45.9022 10.4451 44.8271 11.5523 44.0363 12.378C43.7699 12.6561 43.536 12.902 43.343 13.1058L47.2213 16.8383C47.2938 16.7781 47.3678 16.7167 47.4432 16.6541C48.872 15.4681 50.8119 13.8579 52.5686 12.2837C53.6344 11.3286 54.6176 10.4001 55.3696 9.599C55.7458 9.19816 56.0536 8.84035 56.2819 8.53534C56.3207 8.48346 56.3561 8.43452 56.3884 8.38848ZM45.8428 17.9877L42.2005 14.4825C42.0831 14.6484 41.9844 14.7968 41.9023 14.934C41.7082 15.2585 41.6593 15.4379 41.6525 15.5497C41.641 15.7425 41.7341 16.0899 42.721 17.0737C43.268 17.619 43.6717 17.9968 44.0103 18.2465C44.3453 18.4936 44.541 18.5572 44.6674 18.5689C44.7799 18.5794 44.9525 18.5597 45.2687 18.38C45.4353 18.2854 45.6234 18.1569 45.8428 17.9877ZM42.0948 13.1426L41.4462 12.5423L41.4159 12.5748L41.389 12.6101C40.9898 13.1341 40.6348 13.6063 40.3781 14.0353C40.1198 14.4671 39.9094 14.9368 39.878 15.4604C39.8133 16.5385 40.5286 17.4075 41.4586 18.3346C42.0032 18.8775 42.4896 19.3408 42.945 19.6766C43.4039 20.015 43.9059 20.2813 44.4862 20.3352C45.0804 20.3904 45.6236 20.2114 46.1373 19.9195C46.6347 19.6369 47.1615 19.2155 47.7477 18.6991C47.9914 18.4958 48.2654 18.2683 48.5633 18.0211C49.9911 16.836 51.9644 15.1982 53.7496 13.5985C54.8306 12.6298 55.8578 11.6616 56.6617 10.8051C57.0634 10.3771 57.42 9.9659 57.7027 9.58806C57.9753 9.22381 58.2222 8.83497 58.3504 8.45786C59.0921 6.27645 58.6811 4.03978 58.3279 3.03102L58.1785 2.60419L57.743 2.47842C56.2777 2.05516 54.3037 2.05178 52.039 2.84498C51.6417 2.98411 51.1935 3.27017 50.7602 3.58608C50.3069 3.91662 49.7948 4.33651 49.2557 4.80611C48.1762 5.74629 46.9475 6.92128 45.7952 8.06306C44.6409 9.20675 43.5542 10.326 42.7566 11.1587C42.3576 11.5753 42.0305 11.9206 41.803 12.162C41.6892 12.2827 41.6003 12.3775 41.5397 12.4422C41.5094 12.4746 41.4861 12.4995 41.4704 12.5163L41.4463 12.5421C41.4462 12.5422 41.4462 12.5423 42.0948 13.1426Z" fill="white"/>
    <path fill-rule="evenodd" clip-rule="evenodd" d="M19.9364 13.3477H35.8855V20.183H19.9364V13.3477ZM21.6891 14.9751V18.5555H34.1329V14.9751H21.6891Z" fill="white"/>
    <path fill-rule="evenodd" clip-rule="evenodd" d="M15.2844 4.26412H0.901729V2.52441H16.9512L17.0376 3.3016C17.1374 4.20094 17.1548 6.46687 16.4636 8.68935L14.7362 8.18945C15.1899 6.73061 15.2942 5.23129 15.2844 4.26412ZM6.85314 9.83117V6.61272H8.6566V9.83117H16.682V11.5709H0.901729V9.83117H6.85314ZM2.35423 15.3645C2.07831 15.5633 1.80346 15.9122 1.80346 16.616C1.80346 17.3243 2.08457 17.7396 2.40182 18.0021C2.73165 18.275 3.13448 18.4062 3.39327 18.4427H13.8957C14.1217 18.3452 14.4367 18.1593 14.705 17.8829C15.0139 17.5647 15.2392 17.1526 15.2392 16.616C15.2392 16.0874 15.0218 15.7359 14.7465 15.487C14.4841 15.2497 14.1695 15.11 13.956 15.0503H3.3364C3.08171 15.0503 2.67415 15.1341 2.35423 15.3645ZM1.27524 13.9705C1.96975 13.4703 2.77953 13.3106 3.3364 13.3106H14.1639L14.2585 13.3304C14.7415 13.4317 15.4135 13.7056 15.9799 14.2178C16.5688 14.7503 17.0427 15.5441 17.0427 16.616C17.0427 17.68 16.5767 18.5001 16.0214 19.0721C15.4798 19.63 14.8327 19.9766 14.3632 20.1341L14.2193 20.1824H3.28646L3.23682 20.1771C2.68071 20.1175 1.8935 19.8735 1.22764 19.3226C0.530448 18.7457 0 17.8562 0 16.616C0 15.3714 0.536703 14.5025 1.27524 13.9705Z" fill="white"/>
    <path fill-rule="evenodd" clip-rule="evenodd" d="M70.5469 2.52441L78.1554 8.22708L77.1038 9.6168L70.5534 4.7072L64.088 9.61365L63.0281 8.23023L70.5469 2.52441ZM63.5581 10.8356H78.3288V12.5753H63.5581V10.8356ZM64.9659 15.9341C64.6985 16.1328 64.4321 16.4817 64.4321 17.1856C64.4321 17.8939 64.7046 18.3092 65.0121 18.5717C65.3318 18.8446 65.7222 18.9758 65.973 19.0123H76.1526C76.3716 18.9148 76.6769 18.7289 76.9371 18.4525C77.2364 18.1343 77.4548 17.7222 77.4548 17.1856C77.4548 16.657 77.2441 16.3055 76.9773 16.0566C76.7229 15.8193 76.418 15.6796 76.211 15.6198H65.9179C65.6711 15.6198 65.276 15.7037 64.9659 15.9341ZM63.9201 14.5401C64.5933 14.0399 65.3782 13.8801 65.9179 13.8801H76.4125L76.5043 13.9C76.9724 14.0013 77.6238 14.2752 78.1727 14.7873C78.7435 15.3198 79.2028 16.1136 79.2028 17.1856C79.2028 18.2495 78.7512 19.0697 78.2129 19.6417C77.688 20.1996 77.0608 20.5462 76.6057 20.7037L76.4663 20.752H65.8695L65.8214 20.7467C65.2824 20.6871 64.5194 20.4431 63.874 19.8922C63.1982 19.3153 62.6841 18.4258 62.6841 17.1856C62.6841 15.941 63.2043 15.0721 63.9201 14.5401Z" fill="white"/>
    <path fill-rule="evenodd" clip-rule="evenodd" d="M34.1134 6.32324V2.52441H35.8855V11.8825H34.1134V8.17632H30.1819C30.0248 9.69876 29.7927 11.2506 29.4495 12.2078L27.7902 11.5572C28.1007 10.6911 28.3397 8.96526 28.4972 7.16535C28.5786 6.23519 28.6355 5.32255 28.6715 4.56281H19.9364V2.70972H30.5082L30.4801 3.66476C30.4602 4.34277 30.4159 5.29126 30.3421 6.32324H34.1134Z" fill="white"/>
    <path fill-rule="evenodd" clip-rule="evenodd" d="M81.559 3.09473H83.3448V9.24827H96.2026V3.09473H97.9884V11.0319H81.559V3.09473ZM88.8808 14.4208H81.4813V12.6372H98V14.4208H90.6666V20.7527H88.8808V14.4208Z" fill="white"/>
</svg>
