<svg width="133" height="130" viewBox="0 0 133 130" fill="none" xmlns="http://www.w3.org/2000/svg">
    <g filter="url(#filter0_d_114_364)">
        <path fill-rule="evenodd" clip-rule="evenodd" d="M29.2404 10.9629C26.025 14.1592 24.3755 20.9191 26.5065 27.8546L48.2804 11.6527C45.1901 10.2526 41.832 9.6506 38.6236 9.56732C36.1089 9.50205 33.806 9.76192 31.9993 10.1418C31.0971 10.3316 30.3589 10.5428 29.8088 10.7381C29.55 10.8299 29.3643 10.9072 29.2404 10.9629ZM56.1545 17.6948C57.4396 18.9838 58.8534 20.4729 59.9687 21.8185L67.2984 15.7095C64.7701 12.6592 61.2136 9.25393 59.7728 7.92822C53.3648 2.03234 45.3932 0.182563 38.8702 0.0132456C35.584 -0.0720541 32.5419 0.26258 30.0431 0.78803C27.7051 1.27969 25.3618 2.03763 23.7796 3.09007L23.5024 3.27448L23.2534 3.49572C14.7346 11.0653 13.6642 26.1424 20.5038 37.6681L20.6012 37.8322L20.7114 37.9881C21.0639 38.4867 21.4566 39.0575 21.8871 39.6832C24.014 42.7745 27.0635 47.2067 30.7467 50.9062L37.4917 44.1538C35.0563 41.7076 32.9873 38.9164 31.153 36.2983L56.1545 17.6948ZM92.0465 17.0135L112.373 34.7048C113.327 27.6182 112.415 20.9056 111.298 16.5752C106.193 15.5216 99.675 15.3857 92.0465 17.0135ZM109.247 44.6402L81.5373 20.5219C80.6775 21.0474 79.6404 21.7434 78.4234 22.6331C75.8818 24.4915 72.8792 26.9513 69.5694 29.8419C62.9559 35.6179 55.3293 42.9261 48.068 50.1406C40.8168 57.345 33.9769 64.4089 28.9468 69.6751C26.9628 71.7523 25.2618 73.5482 23.93 74.9607L49.7334 99.862C50.3906 99.3146 51.0692 98.7499 51.767 98.169C60.8485 90.6103 73.1966 80.3327 84.3776 70.2854C91.1602 64.1906 97.4326 58.2518 102.24 53.1161C104.645 50.5468 106.627 48.2378 108.107 46.2552C108.548 45.6646 108.926 45.1266 109.247 44.6402ZM42.392 106.042L17.8138 82.3226C16.778 83.7553 15.9309 85.0015 15.2539 86.1361C13.985 88.2627 13.5931 89.5543 13.5381 90.4723C13.4394 92.1224 14.3213 94.5772 20.5647 100.818C24.0401 104.292 26.6443 106.74 28.8499 108.371C31.0341 109.986 32.4231 110.489 33.4484 110.585C34.4057 110.674 35.6949 110.468 37.812 109.261C39.1235 108.514 40.6178 107.461 42.392 106.042ZM17.2317 75.1288L13.7438 71.8727L13.5836 72.0452L13.4411 72.2328C10.897 75.5812 8.67462 78.5483 7.07509 81.2291C5.46784 83.9227 4.21167 86.7678 4.02428 89.8999C3.63836 96.3499 7.89502 101.648 13.8358 107.587C17.2986 111.048 20.3522 113.962 23.1929 116.063C26.0551 118.179 29.1008 119.778 32.5674 120.101C36.1021 120.43 39.3622 119.37 42.5203 117.571C45.5946 115.819 48.8848 113.186 52.6052 109.899C54.1595 108.598 55.9073 107.144 57.806 105.564C66.882 98.0097 79.4069 87.5854 90.7383 77.4029C97.6012 71.236 104.107 65.0864 109.189 59.657C111.729 56.9438 113.969 54.3511 115.738 51.9815C117.452 49.6848 118.95 47.3012 119.718 45.0371C124.348 31.3821 121.781 17.3328 119.574 11.0109L118.761 8.68341L116.398 7.99908C107.277 5.35709 94.9227 5.3184 80.6893 10.3172C78.3049 11.1546 75.5519 12.9046 72.8081 14.9107C69.9578 16.9948 66.7261 19.6512 63.3097 22.6349C56.4711 28.6074 48.6785 36.0799 41.3597 43.3515C34.0307 50.6332 27.1296 57.7607 22.0637 63.0643C19.5297 65.7172 17.4525 67.9163 16.0077 69.4534C15.2852 70.222 14.7207 70.8253 14.3361 71.2371C14.1438 71.443 13.9965 71.6011 13.8968 71.7081L13.7447 71.8717C13.7441 71.8723 13.7438 71.8727 17.2317 75.1288ZM108.237 64.9762C110.368 67.0169 114.865 71.3224 120.649 78.5183C123.393 81.9321 125.6 84.9301 127.028 87.6575C128.479 90.4307 129.387 93.4137 128.838 96.6141C128.299 99.7582 126.496 102.253 124.432 104.372C122.381 106.479 119.608 108.672 116.424 111.106C115.645 111.701 114.894 112.279 114.169 112.836C111.132 115.17 108.561 117.145 106.397 118.584C103.779 120.325 100.917 121.883 97.7295 121.994C94.2701 122.113 91.5023 120.528 89.1299 118.562C86.8576 116.679 84.334 113.918 81.3568 110.622C77.3521 106.696 72.2917 101.469 69.8254 98.4936L77.1552 92.3847C78.7853 94.3514 81.9539 97.7025 85.132 100.913L110.165 80.8314C106.266 76.3024 103.278 73.4425 101.654 71.888C101.582 71.8186 101.512 71.7519 101.445 71.6877L108.031 64.7786C108.097 64.8419 108.165 64.9078 108.237 64.9762ZM116.133 88.2829L91.7533 107.841C93.1345 109.307 94.2363 110.395 95.2014 111.195C96.7408 112.47 97.2767 112.447 97.3931 112.442C97.396 112.442 97.3986 112.442 97.401 112.442C97.771 112.429 98.7339 112.212 101.13 110.619C102.996 109.378 105.224 107.667 108.228 105.36C108.983 104.78 109.786 104.163 110.645 103.506C113.891 101.025 116.119 99.2292 117.613 97.6954C119.094 96.174 119.38 95.3757 119.445 94.9945C119.501 94.6698 119.529 93.8953 118.589 92.0993C118.032 91.0356 117.231 89.7914 116.133 88.2829Z" fill="white"/>
    </g>
    <defs>
        <filter id="filter0_d_114_364" x="0" y="0" width="133" height="130" filterUnits="userSpaceOnUse" color-interpolation-filters="sRGB">
            <feFlood flood-opacity="0" result="BackgroundImageFix"/>
            <feColorMatrix in="SourceAlpha" type="matrix" values="0 0 0 0 0 0 0 0 0 0 0 0 0 0 0 0 0 0 127 0" result="hardAlpha"/>
            <feOffset dy="4"/>
            <feGaussianBlur stdDeviation="2"/>
            <feComposite in2="hardAlpha" operator="out"/>
            <feColorMatrix type="matrix" values="0 0 0 0 0 0 0 0 0 0 0 0 0 0 0 0 0 0 0.1 0"/>
            <feBlend mode="normal" in2="BackgroundImageFix" result="effect1_dropShadow_114_364"/>
            <feBlend mode="normal" in="SourceGraphic" in2="effect1_dropShadow_114_364" result="shape"/>
        </filter>
    </defs>
</svg>
