<svg width="30" height="30" viewBox="0 0 30 30" fill="none" xmlns="http://www.w3.org/2000/svg">
    <path d="M15 0C6.71667 0 0 6.71667 0 15C0 23.2833 6.71667 30 15 30C16.3833 30 17.5 28.8833 17.5 27.5C17.5 26.85 17.25 26.2667 16.85 25.8167C16.4667 25.3833 16.2167 24.8 16.2167 24.1667C16.2167 22.7833 17.3333 21.6667 18.7167 21.6667H21.6667C26.2667 21.6667 30 17.9333 30 13.3333C30 5.96667 23.2833 0 15 0ZM5.83333 15C4.45 15 3.33333 13.8833 3.33333 12.5C3.33333 11.1167 4.45 10 5.83333 10C7.21667 10 8.33333 11.1167 8.33333 12.5C8.33333 13.8833 7.21667 15 5.83333 15ZM10.8333 8.33333C9.45 8.33333 8.33333 7.21667 8.33333 5.83333C8.33333 4.45 9.45 3.33333 10.8333 3.33333C12.2167 3.33333 13.3333 4.45 13.3333 5.83333C13.3333 7.21667 12.2167 8.33333 10.8333 8.33333ZM19.1667 8.33333C17.7833 8.33333 16.6667 7.21667 16.6667 5.83333C16.6667 4.45 17.7833 3.33333 19.1667 3.33333C20.55 3.33333 21.6667 4.45 21.6667 5.83333C21.6667 7.21667 20.55 8.33333 19.1667 8.33333ZM24.1667 15C22.7833 15 21.6667 13.8833 21.6667 12.5C21.6667 11.1167 22.7833 10 24.1667 10C25.55 10 26.6667 11.1167 26.6667 12.5C26.6667 13.8833 25.55 15 24.1667 15Z" fill="#666666"/>
</svg>
