<svg width="26" height="28" viewBox="0 0 26 28" fill="none" xmlns="http://www.w3.org/2000/svg">
    <path d="M24.5555 8.42343L15.8889 1.06823C15.0944 0.380313 14.0659 0 13 0C11.9341 0 10.9056 0.380313 10.1112 1.06823L1.44457 8.42343C0.985773 8.82065 0.619655 9.30795 0.370594 9.85286C0.121533 10.3978 -0.00475588 10.9878 0.000136924 11.5836V23.805C0.000136924 24.9176 0.45668 25.9846 1.26933 26.7713C2.08198 27.558 3.18418 28 4.33344 28H21.6666C22.8159 28 23.9181 27.558 24.7308 26.7713C25.5434 25.9846 26 24.9176 26 23.805V11.5697C26.0028 10.9762 25.8755 10.3888 25.6265 9.84648C25.3775 9.30412 25.0125 8.81909 24.5555 8.42343ZM15.8889 25.2033H10.1112V18.2117C10.1112 17.8409 10.2634 17.4852 10.5342 17.2229C10.8051 16.9607 11.1725 16.8134 11.5556 16.8134H14.4445C14.8276 16.8134 15.195 16.9607 15.4658 17.2229C15.7367 17.4852 15.8889 17.8409 15.8889 18.2117V25.2033ZM23.1111 23.805C23.1111 24.1759 22.9589 24.5315 22.688 24.7938C22.4171 25.056 22.0497 25.2033 21.6666 25.2033H18.7778V18.2117C18.7778 17.0991 18.3212 16.0321 17.5086 15.2454C16.6959 14.4587 15.5937 14.0167 14.4445 14.0167H11.5556C10.4063 14.0167 9.30415 14.4587 8.4915 15.2454C7.67885 16.0321 7.22231 17.0991 7.22231 18.2117V25.2033H4.33344C3.95035 25.2033 3.58295 25.056 3.31207 24.7938C3.04119 24.5315 2.88901 24.1759 2.88901 23.805V11.5697C2.88927 11.3711 2.9332 11.1749 3.01787 10.9941C3.10255 10.8133 3.22604 10.652 3.38011 10.5209L12.0467 3.1797C12.3103 2.95552 12.6492 2.83189 13 2.83189C13.3509 2.83189 13.6898 2.95552 13.9534 3.1797L22.62 10.5209C22.7741 10.652 22.8975 10.8133 22.9822 10.9941C23.0669 11.1749 23.1108 11.3711 23.1111 11.5697V23.805Z" fill="white"/>
</svg>
