<svg width="27" height="29" viewBox="0 0 27 29" fill="none" xmlns="http://www.w3.org/2000/svg">
    <path d="M25.0641 8.62661L16.3975 1.27141C15.603 0.583493 14.5745 0.20318 13.5086 0.20318C12.4427 0.20318 11.4142 0.583493 10.6197 1.27141L1.95311 8.62661C1.49431 9.02383 1.12819 9.51113 0.879131 10.056C0.63007 10.6009 0.503781 11.191 0.508674 11.7868V24.0082C0.508674 25.1208 0.965218 26.1878 1.77787 26.9745C2.59052 27.7612 3.69271 28.2032 4.84198 28.2032H22.1752C23.3245 28.2032 24.4266 27.7612 25.2393 26.9745C26.0519 26.1878 26.5085 25.1208 26.5085 24.0082V11.7728C26.5113 11.1793 26.3841 10.592 26.1351 10.0497C25.8861 9.5073 25.521 9.02227 25.0641 8.62661ZM16.3975 25.4065H10.6197V18.4149C10.6197 18.044 10.7719 17.6884 11.0428 17.4261C11.3137 17.1639 11.6811 17.0166 12.0641 17.0166H14.953C15.3361 17.0166 15.7035 17.1639 15.9744 17.4261C16.2453 17.6884 16.3975 18.044 16.3975 18.4149V25.4065Z" fill="white"/>
</svg>
