<svg width="30" height="30" viewBox="0 0 30 30" fill="none" xmlns="http://www.w3.org/2000/svg">
    <path d="M10 12.8125C12.934 12.8125 15.3125 10.434 15.3125 7.5C15.3125 4.56599 12.934 2.1875 10 2.1875C7.06599 2.1875 4.6875 4.56599 4.6875 7.5C4.6875 10.434 7.06599 12.8125 10 12.8125Z" fill="white"/>
    <path d="M12.5 14.0625H7.5C5.92589 14.0645 4.41681 14.6907 3.30375 15.8037C2.19068 16.9168 1.56448 18.4259 1.5625 20V25C1.5625 25.2486 1.66127 25.4871 1.83709 25.6629C2.0129 25.8387 2.25136 25.9375 2.5 25.9375H17.5C17.7486 25.9375 17.9871 25.8387 18.1629 25.6629C18.3387 25.4871 18.4375 25.2486 18.4375 25V20C18.4355 18.4259 17.8093 16.9168 16.6963 15.8037C15.5832 14.6907 14.0741 14.0645 12.5 14.0625Z" fill="white"/>
    <path d="M20.9987 14.3675C23.5855 14.3675 25.6824 12.2705 25.6824 9.68375C25.6824 7.09699 23.5855 5 20.9987 5C18.4119 5 16.3149 7.09699 16.3149 9.68375C16.3149 12.2705 18.4119 14.3675 20.9987 14.3675Z" fill="white"/>
    <path d="M28.4375 20.6998V25.1123C28.4355 25.3305 28.348 25.5393 28.1937 25.6935C28.0394 25.8478 27.8307 25.9354 27.6125 25.9373H19.6875V19.9998C19.6855 18.3705 19.1252 16.7911 18.1 15.5248C18.3316 15.4891 18.5657 15.4724 18.8 15.4748H23.2C24.5872 15.4739 25.9181 16.0236 26.9001 17.0034C27.8822 17.9831 28.4352 19.3126 28.4375 20.6998Z" fill="white"/>
</svg>
