<?xml version="1.0" encoding="UTF-8"?><svg xmlns="http://www.w3.org/2000/svg" viewBox="0 0 377.31027 428.80171"><g isolation="isolate"><g id="Layer_2"><g id="Layer_13"><path d="M177.53905,2.97855L11.11608,99.06289C4.23743,103.03428,0,110.37372,0,118.31651v60.53296c0,89.39926,47.69394,172.00758,125.11597,216.70722l52.42308,30.26648c6.87866,3.97139,15.35351,3.97139,22.23217,0l52.42308-30.26648c77.42204-44.69963,125.11597-127.30795,125.11597-216.70722v-60.53296c0-7.94279-4.23743-15.28223-11.11608-19.25362L199.77122,2.97855c-6.87866-3.97139-15.35351-3.97139-22.23217,0Z" fill="#ffe2a7" stroke-width="0"/><path d="M199.77122,425.82317l52.42308-30.26648c77.42204-44.69963,125.11597-127.30795,125.11597-216.70722v-60.53296c0-7.94279-4.23743-15.28223-11.11608-19.25362L199.77122,2.97855" fill="#e5a87f" opacity=".2" stroke-width="0"/><path d="M177.53905,34.34815L38.28296,114.74769c-6.87866,3.97139-11.11608,11.31083-11.11608,19.25362v29.16336c0,89.39926,47.69394,172.00759,125.11597,216.70722l25.25621,14.58168c6.87866,3.97139,15.35351,3.97139,22.23217,0l25.25621-14.58168c77.42204-44.69963,125.11597-127.30795,125.11597-216.70722v-29.16336c0-7.94279-4.23743-15.28223-11.11608-19.25362L199.77122,34.34815c-6.87866-3.97139-15.35351-3.97139-22.23217,0Z" fill="#663a46" stroke-width="0"/><path d="M177.53905,48.3432L50.40303,121.74522c-6.87866,3.97139-11.11608,11.31083-11.11608,19.25362v15.1683c0,89.39926,47.69394,172.00759,125.11597,216.70722l13.13614,7.58415c6.87866,3.97139,15.35351,3.97139,22.23217,0l13.13614-7.58415c77.42204-44.69963,125.11597-127.30795,125.11597-216.70722v-15.1683c0-7.94279-4.23743-15.28223-11.11608-19.25362l-127.13602-73.40202c-6.87866-3.97139-15.35351-3.97139-22.23217,0Z" fill="#fecb9d" stroke-width="0"/><path d="M177.53905,34.34815L38.28296,114.74769" fill="#4c1e27" stroke-width="0"/><rect x="87.86042" y="50.31668" width="23" height="26.41858" transform="translate(-18.45121 58.19108) rotate(-30)" fill="#ffecde" stroke-width="0"/><rect x="78.2831" y="60.45555" width="7.3949" height="26.41858" transform="translate(-25.84911 50.85949) rotate(-30)" fill="#ffecde" stroke-width="0"/><rect x="91.17612" y="79.90566" width="5.86658" height="54.49942" rx="2.93329" ry="2.93329" transform="translate(48.36502 242.23425) rotate(-120.00007)" fill="#ffecde" stroke-width="0"/><rect x="129.37281" y="70.86472" width="5.86658" height="28.13652" rx="2.93329" ry="2.93329" transform="translate(124.90527 241.97992) rotate(-120.00009)" fill="#ffecde" stroke-width="0"/><path d="M125.11597,395.55669l52.42308,30.26648c6.87866,3.97139,15.35351,3.97139,22.23217,0l52.42308-30.26648c77.42204-44.69963,125.11597-127.30795,125.11597-216.70722v-60.53296c0-7.94279-4.23743-15.28223-11.11608-19.25362" fill="#efcdaf" mix-blend-mode="multiply" opacity=".3" stroke-width="0"/><path d="M199.77122,425.82317l52.42308-30.26648c77.42204-44.69963,125.11597-127.30795,125.11597-216.70722" fill="#efcdaf" mix-blend-mode="multiply" opacity=".3" stroke-width="0"/><path d="M195.2364,159.07344l11.62573,23.55629c1.00598,2.03833,2.95054,3.45114,5.19997,3.778l25.99591,3.77743c5.66464.82312,7.92651,7.78443,3.82753,11.77994l-18.81082,18.33602c-1.62771,1.58662-2.37046,3.87259-1.98621,6.11294l4.44063,25.89087c.96764,5.64176-4.954,9.94408-10.02062,7.2804l-23.25145-12.22401c-2.01196-1.05775-4.41557-1.05775-6.42752,0l-23.25145,12.22401c-5.06661,2.66368-10.98825-1.63865-10.02062-7.2804l4.44063-25.89087c.38425-2.24035-.35851-4.52632-1.98621-6.11294l-18.81082-18.33602c-4.09898-3.99551-1.83711-10.95682,3.82753-11.77994l25.99591-3.77743c2.24944-.32686,4.194-1.73967,5.19997-3.778l11.62573-23.55629c2.53331-5.13304,9.85286-5.13304,12.38616,0Z" fill="#dd8c4a" stroke="#c18346" stroke-miterlimit="10" stroke-width="4"/><path d="M193.78243,170.51519l8.89632,18.02591c.7698,1.55979,2.25783,2.64091,3.97916,2.89103l19.89277,2.89059c4.33474.62987,6.06558,5.95685,2.92893,9.01433l-14.39455,14.03122c-1.24556,1.21413-1.81394,2.96341-1.5199,4.67778l3.39809,19.81239c.74046,4.31722-3.79094,7.60948-7.66805,5.57116l-17.79264-9.35414c-1.5396-.80942-3.37891-.80942-4.91851,0l-17.79264,9.35414c-3.87711,2.03832-8.40851-1.25394-7.66805-5.57116l3.39809-19.81239c.29404-1.71437-.27434-3.46366-1.5199-4.67778l-14.39455-14.03122c-3.13665-3.05747-1.40581-8.38445,2.92893-9.01433l19.89277-2.89059c1.72133-.25012,3.20936-1.33124,3.97916-2.89103l8.89632-18.02591c1.93855-3.92794,7.53967-3.92794,9.47823,0Z" fill="#ffb45a" stroke-width="0"/><rect x="180.99199" y="177.95001" width="3" height="9" rx="1.5" ry="1.5" transform="translate(98.81588 -61.65989) rotate(26.08588)" fill="#ffecde" stroke-width="0"/><rect x="184.12843" y="174.21327" width="3" height="3.83107" rx="1.5" ry="1.5" transform="translate(96.35573 -63.6829) rotate(26.08585)" fill="#ffecde" stroke-width="0"/><rect x="162.44867" y="189.09606" width="3" height="13.96866" rx="1.5" ry="1.5" transform="translate(333.45489 4.78395) rotate(81.44389)" fill="#ffecde" stroke-width="0"/></g></g></g></svg>